# Blender 4.5.4 LTS
# www.blender.org
mtllib quad.mtl
o Plane
v -30.000000 0.000000 30.000000
v 30.000000 0.000000 30.000000
v -30.000000 0.000000 -30.000000
v 30.000000 0.000000 -30.000000
v -30.000000 0.000000 -27.000000
v -30.000000 0.000000 -23.999998
v -30.000000 0.000000 -20.999998
v -30.000000 0.000000 -17.999996
v -30.000000 0.000000 -14.999997
v -30.000000 0.000000 -11.999997
v -30.000000 0.000000 -8.999998
v -30.000000 0.000000 -5.999998
v -30.000000 0.000000 -2.999998
v -30.000000 0.000000 0.000002
v -30.000000 0.000000 3.000002
v -30.000000 0.000000 6.000001
v -30.000000 0.000000 9.000001
v -30.000000 0.000000 12.000001
v -30.000000 0.000000 15.000000
v -30.000000 0.000000 18.000000
v -30.000000 0.000000 21.000002
v -30.000000 0.000000 24.000000
v -30.000000 0.000000 27.000000
v 30.000000 0.000000 27.000000
v 30.000000 0.000000 23.999998
v 30.000000 0.000000 20.999998
v 30.000000 0.000000 17.999996
v 30.000000 0.000000 14.999997
v 30.000000 0.000000 11.999997
v 30.000000 0.000000 8.999998
v 30.000000 0.000000 5.999998
v 30.000000 0.000000 2.999998
v 30.000000 0.000000 -0.000002
v 30.000000 0.000000 -3.000002
v 30.000000 0.000000 -6.000001
v 30.000000 0.000000 -9.000001
v 30.000000 0.000000 -12.000001
v 30.000000 0.000000 -15.000000
v 30.000000 0.000000 -18.000000
v 30.000000 0.000000 -21.000002
v 30.000000 0.000000 -24.000000
v 30.000000 0.000000 -27.000000
v -27.000000 0.000000 30.000000
v -23.999998 0.000000 30.000000
v -20.999998 0.000000 30.000000
v -17.999996 0.000000 30.000000
v -14.999997 0.000000 30.000000
v -11.999997 0.000000 30.000000
v -8.999998 0.000000 30.000000
v -5.999998 0.000000 30.000000
v -2.999998 0.000000 30.000000
v 0.000002 0.000000 30.000000
v 3.000002 0.000000 30.000000
v 6.000001 0.000000 30.000000
v 9.000001 0.000000 30.000000
v 12.000001 0.000000 30.000000
v 15.000000 0.000000 30.000000
v 18.000000 0.000000 30.000000
v 21.000002 0.000000 30.000000
v 24.000000 0.000000 30.000000
v 27.000000 0.000000 30.000000
v 27.000000 0.000000 -30.000000
v 23.999998 0.000000 -30.000000
v 20.999998 0.000000 -30.000000
v 17.999996 0.000000 -30.000000
v 14.999997 0.000000 -30.000000
v 11.999997 0.000000 -30.000000
v 8.999998 0.000000 -30.000000
v 5.999998 0.000000 -30.000000
v 2.999998 0.000000 -30.000000
v -0.000002 0.000000 -30.000000
v -3.000002 0.000000 -30.000000
v -6.000001 0.000000 -30.000000
v -9.000001 0.000000 -30.000000
v -12.000001 0.000000 -30.000000
v -15.000000 0.000000 -30.000000
v -18.000000 0.000000 -30.000000
v -21.000002 0.000000 -30.000000
v -24.000000 0.000000 -30.000000
v -27.000000 0.000000 -30.000000
v 27.000000 0.000000 27.000000
v 23.999998 0.000000 27.000000
v 20.999998 0.000000 27.000000
v 17.999996 0.000000 27.000000
v 14.999997 0.000000 27.000000
v 11.999997 0.000000 27.000000
v 8.999998 0.000000 27.000000
v 5.999998 0.000000 27.000000
v 2.999998 0.000000 27.000000
v -0.000002 0.000000 27.000000
v -3.000002 0.000000 27.000000
v -6.000001 0.000000 27.000000
v -9.000001 0.000000 27.000000
v -12.000001 0.000000 27.000000
v -15.000000 0.000000 27.000000
v -18.000000 0.000000 27.000000
v -21.000002 0.000000 27.000000
v -24.000000 0.000000 27.000000
v -27.000000 0.000000 27.000000
v 27.000000 0.000000 23.999998
v 23.999998 0.000000 23.999998
v 20.999998 0.000000 23.999998
v 17.999996 0.000000 23.999998
v 14.999997 0.000000 23.999998
v 11.999997 0.000000 23.999998
v 8.999998 0.000000 23.999998
v 5.999998 0.000000 23.999998
v 2.999998 0.000000 23.999998
v -0.000002 0.000000 23.999998
v -3.000002 0.000000 23.999998
v -6.000001 0.000000 23.999998
v -9.000001 0.000000 23.999998
v -12.000001 0.000000 23.999998
v -15.000000 0.000000 23.999998
v -18.000000 0.000000 23.999998
v -21.000002 0.000000 23.999998
v -24.000000 0.000000 23.999998
v -27.000000 0.000000 23.999998
v 27.000000 0.000000 20.999998
v 23.999998 0.000000 20.999998
v 20.999998 0.000000 20.999998
v 17.999996 0.000000 20.999998
v 14.999997 0.000000 20.999998
v 11.999997 0.000000 20.999998
v 8.999998 0.000000 20.999998
v 5.999998 0.000000 20.999998
v 2.999998 0.000000 20.999998
v -0.000002 0.000000 20.999998
v -3.000002 0.000000 20.999998
v -6.000001 0.000000 20.999998
v -9.000001 0.000000 20.999998
v -12.000001 0.000000 20.999998
v -15.000000 0.000000 20.999998
v -18.000000 0.000000 20.999998
v -21.000002 0.000000 20.999998
v -24.000000 0.000000 21.000000
v -27.000000 0.000000 21.000002
v 27.000000 0.000000 17.999996
v 23.999998 0.000000 17.999996
v 20.999998 0.000000 17.999996
v 17.999996 0.000000 17.999996
v 14.999997 0.000000 17.999996
v 11.999997 0.000000 17.999996
v 8.999998 0.000000 17.999996
v 5.999998 0.000000 17.999996
v 2.999998 0.000000 17.999996
v -0.000002 0.000000 17.999996
v -3.000002 0.000000 17.999996
v -6.000001 0.000000 17.999996
v -9.000001 0.000000 17.999996
v -12.000001 0.000000 17.999996
v -15.000000 0.000000 17.999996
v -18.000000 0.000000 17.999996
v -21.000002 0.000000 17.999996
v -24.000000 0.000000 17.999998
v -27.000000 0.000000 18.000000
v 27.000000 0.000000 14.999997
v 23.999998 0.000000 14.999997
v 20.999998 0.000000 14.999997
v 17.999996 0.000000 14.999997
v 14.999997 0.000000 14.999997
v 11.999997 0.000000 14.999997
v 8.999998 0.000000 14.999997
v 5.999998 0.000000 14.999997
v 2.999998 0.000000 14.999997
v -0.000002 0.000000 14.999997
v -3.000002 0.000000 14.999997
v -6.000001 0.000000 14.999997
v -9.000001 0.000000 14.999997
v -12.000001 0.000000 14.999997
v -15.000000 0.000000 14.999998
v -18.000000 0.000000 14.999998
v -21.000002 0.000000 14.999998
v -24.000000 0.000000 14.999999
v -27.000000 0.000000 15.000000
v 27.000000 0.000000 11.999997
v 23.999998 0.000000 11.999997
v 20.999998 0.000000 11.999997
v 17.999996 0.000000 11.999997
v 14.999997 0.000000 11.999997
v 11.999997 0.000000 11.999997
v 8.999998 0.000000 11.999997
v 5.999998 0.000000 11.999997
v 2.999998 0.000000 11.999997
v -0.000002 0.000000 11.999997
v -3.000002 0.000000 11.999997
v -6.000001 0.000000 11.999997
v -9.000001 0.000000 11.999997
v -12.000001 0.000000 11.999998
v -15.000000 0.000000 11.999999
v -18.000000 0.000000 11.999999
v -21.000002 0.000000 11.999999
v -24.000000 0.000000 12.000000
v -27.000000 0.000000 12.000001
v 27.000000 0.000000 8.999998
v 23.999998 0.000000 8.999998
v 20.999998 0.000000 8.999998
v 17.999996 0.000000 8.999998
v 14.999997 0.000000 8.999998
v 11.999997 0.000000 8.999998
v 8.999998 0.000000 8.999998
v 5.999998 0.000000 8.999998
v 2.999998 0.000000 8.999998
v -0.000002 0.000000 8.999998
v -3.000002 0.000000 8.999998
v -6.000001 0.000000 8.999998
v -9.000001 0.000000 8.999998
v -12.000001 0.000000 8.999998
v -15.000000 0.000000 8.999998
v -18.000000 0.000000 8.999999
v -21.000002 0.000000 9.000000
v -24.000000 0.000000 9.000000
v -27.000000 0.000000 9.000000
v 27.000000 0.000000 5.999998
v 23.999998 0.000000 5.999998
v 20.999998 0.000000 5.999998
v 17.999996 0.000000 5.999998
v 14.999997 0.000000 5.999998
v 11.999997 0.000000 5.999998
v 8.999998 0.000000 5.999999
v 5.999998 0.000000 5.999999
v 2.999998 0.000000 5.999999
v -0.000002 0.000000 5.999999
v -3.000002 0.000000 6.000000
v -6.000001 0.000000 6.000000
v -9.000001 0.000000 6.000000
v -12.000001 0.000000 6.000000
v -15.000000 0.000000 6.000000
v -18.000000 0.000000 6.000000
v -21.000002 0.000000 6.000000
v -24.000000 0.000000 6.000001
v -27.000000 0.000000 6.000001
v 27.000000 0.000000 2.999998
v 23.999998 0.000000 2.999999
v 20.999998 0.000000 2.999999
v 17.999996 0.000000 2.999999
v 14.999997 0.000000 2.999999
v 11.999997 0.000000 2.999999
v 8.999998 0.000000 3.000000
v 5.999998 0.000000 3.000000
v 2.999998 0.000000 3.000000
v -0.000002 0.000000 3.000000
v -3.000002 0.000000 3.000000
v -6.000001 0.000000 3.000001
v -9.000001 0.000000 3.000001
v -12.000001 0.000000 3.000001
v -15.000000 0.000000 3.000001
v -18.000000 0.000000 3.000001
v -21.000002 0.000000 3.000001
v -24.000000 0.000000 3.000001
v -27.000000 0.000000 3.000002
v 27.000000 0.000000 -0.000002
v 23.999998 0.000000 -0.000001
v 20.999998 0.000000 -0.000001
v 17.999996 0.000000 -0.000001
v 14.999997 0.000000 -0.000001
v 11.999997 0.000000 -0.000001
v 8.999998 0.000000 -0.000001
v 5.999998 0.000000 -0.000000
v 2.999998 0.000000 -0.000000
v -0.000002 0.000000 0.000000
v -3.000002 0.000000 0.000000
v -6.000001 0.000000 0.000000
v -9.000001 0.000000 0.000001
v -12.000001 0.000000 0.000001
v -15.000000 0.000000 0.000001
v -18.000000 0.000000 0.000001
v -21.000002 0.000000 0.000001
v -24.000000 0.000000 0.000001
v -27.000000 0.000000 0.000002
v 27.000000 0.000000 -3.000001
v 23.999998 0.000000 -3.000001
v 20.999998 0.000000 -3.000001
v 17.999996 0.000000 -3.000001
v 14.999997 0.000000 -3.000000
v 11.999997 0.000000 -3.000000
v 8.999998 0.000000 -3.000000
v 5.999998 0.000000 -3.000000
v 2.999998 0.000000 -3.000000
v -0.000002 0.000000 -2.999999
v -3.000002 0.000000 -2.999999
v -6.000001 0.000000 -2.999999
v -9.000001 0.000000 -2.999999
v -12.000001 0.000000 -2.999999
v -15.000000 0.000000 -2.999999
v -18.000000 0.000000 -2.999999
v -21.000002 0.000000 -2.999999
v -24.000000 0.000000 -2.999998
v -27.000000 0.000000 -2.999998
v 27.000000 0.000000 -6.000001
v 23.999998 0.000000 -6.000001
v 20.999998 0.000000 -6.000001
v 17.999996 0.000000 -6.000001
v 14.999997 0.000000 -6.000001
v 11.999997 0.000000 -6.000001
v 8.999998 0.000000 -6.000000
v 5.999998 0.000000 -6.000000
v 2.999998 0.000000 -6.000000
v -0.000002 0.000000 -6.000000
v -3.000002 0.000000 -6.000000
v -6.000001 0.000000 -6.000000
v -9.000001 0.000000 -6.000000
v -12.000001 0.000000 -5.999999
v -15.000000 0.000000 -5.999999
v -18.000000 0.000000 -5.999999
v -21.000002 0.000000 -5.999999
v -24.000000 0.000000 -5.999998
v -27.000000 0.000000 -5.999998
v 27.000000 0.000000 -9.000001
v 23.999998 0.000000 -9.000001
v 20.999998 0.000000 -9.000001
v 17.999996 0.000000 -9.000001
v 14.999997 0.000000 -9.000001
v 11.999997 0.000000 -9.000001
v 8.999998 0.000000 -9.000001
v 5.999998 0.000000 -9.000001
v 2.999998 0.000000 -9.000001
v -0.000002 0.000000 -9.000001
v -3.000002 0.000000 -9.000001
v -6.000001 0.000000 -9.000001
v -9.000001 0.000000 -9.000000
v -12.000001 0.000000 -9.000000
v -15.000000 0.000000 -9.000000
v -18.000000 0.000000 -8.999999
v -21.000002 0.000000 -8.999998
v -24.000000 0.000000 -8.999998
v -27.000000 0.000000 -8.999998
v 27.000000 0.000000 -12.000001
v 23.999998 0.000000 -12.000001
v 20.999998 0.000000 -12.000001
v 17.999996 0.000000 -12.000001
v 14.999997 0.000000 -12.000001
v 11.999997 0.000000 -12.000001
v 8.999998 0.000000 -12.000001
v 5.999998 0.000000 -12.000001
v 2.999998 0.000000 -12.000001
v -0.000002 0.000000 -12.000001
v -3.000002 0.000000 -12.000001
v -6.000001 0.000000 -12.000001
v -9.000001 0.000000 -12.000001
v -12.000001 0.000000 -12.000000
v -15.000000 0.000000 -11.999999
v -18.000000 0.000000 -11.999999
v -21.000002 0.000000 -11.999999
v -24.000000 0.000000 -11.999998
v -27.000000 0.000000 -11.999997
v 27.000000 0.000000 -15.000000
v 23.999998 0.000000 -15.000000
v 20.999998 0.000000 -15.000000
v 17.999996 0.000000 -15.000000
v 14.999997 0.000000 -15.000000
v 11.999997 0.000000 -15.000000
v 8.999998 0.000000 -15.000000
v 5.999998 0.000000 -15.000000
v 2.999998 0.000000 -15.000000
v -0.000002 0.000000 -15.000000
v -3.000002 0.000000 -15.000000
v -6.000001 0.000000 -15.000000
v -9.000001 0.000000 -15.000000
v -12.000001 0.000000 -15.000000
v -15.000000 0.000000 -15.000000
v -18.000000 0.000000 -14.999999
v -21.000002 0.000000 -14.999998
v -24.000000 0.000000 -14.999998
v -27.000000 0.000000 -14.999998
v 27.000000 0.000000 -18.000000
v 23.999998 0.000000 -18.000000
v 20.999998 0.000000 -18.000000
v 17.999996 0.000000 -18.000000
v 14.999997 0.000000 -18.000000
v 11.999997 0.000000 -18.000000
v 8.999998 0.000000 -18.000000
v 5.999998 0.000000 -18.000000
v 2.999998 0.000000 -18.000000
v -0.000002 0.000000 -18.000000
v -3.000002 0.000000 -18.000000
v -6.000001 0.000000 -18.000000
v -9.000001 0.000000 -18.000000
v -12.000001 0.000000 -18.000000
v -15.000000 0.000000 -18.000000
v -18.000000 0.000000 -18.000000
v -21.000002 0.000000 -18.000000
v -24.000000 0.000000 -17.999998
v -27.000000 0.000000 -17.999996
v 27.000000 0.000000 -21.000002
v 23.999998 0.000000 -21.000002
v 20.999998 0.000000 -21.000002
v 17.999996 0.000000 -21.000002
v 14.999997 0.000000 -21.000002
v 11.999997 0.000000 -21.000002
v 8.999998 0.000000 -21.000002
v 5.999998 0.000000 -21.000002
v 2.999998 0.000000 -21.000002
v -0.000002 0.000000 -21.000002
v -3.000002 0.000000 -21.000002
v -6.000001 0.000000 -21.000002
v -9.000001 0.000000 -21.000002
v -12.000001 0.000000 -21.000002
v -15.000000 0.000000 -21.000002
v -18.000000 0.000000 -21.000002
v -21.000002 0.000000 -21.000002
v -24.000000 0.000000 -21.000000
v -27.000000 0.000000 -20.999998
v 27.000000 0.000000 -24.000000
v 23.999998 0.000000 -24.000000
v 20.999998 0.000000 -24.000000
v 17.999996 0.000000 -24.000000
v 14.999997 0.000000 -24.000000
v 11.999997 0.000000 -24.000000
v 8.999998 0.000000 -24.000000
v 5.999998 0.000000 -24.000000
v 2.999998 0.000000 -24.000000
v -0.000002 0.000000 -24.000000
v -3.000002 0.000000 -24.000000
v -6.000001 0.000000 -24.000000
v -9.000001 0.000000 -24.000000
v -12.000001 0.000000 -24.000000
v -15.000000 0.000000 -24.000000
v -18.000000 0.000000 -24.000000
v -21.000002 0.000000 -24.000000
v -24.000000 0.000000 -24.000000
v -27.000000 0.000000 -23.999998
v 27.000000 0.000000 -27.000000
v 23.999998 0.000000 -27.000000
v 20.999998 0.000000 -27.000000
v 17.999996 0.000000 -27.000000
v 14.999997 0.000000 -27.000000
v 11.999997 0.000000 -27.000000
v 8.999998 0.000000 -27.000000
v 5.999998 0.000000 -27.000000
v 2.999998 0.000000 -27.000000
v -0.000002 0.000000 -27.000000
v -3.000002 0.000000 -27.000000
v -6.000001 0.000000 -27.000000
v -9.000001 0.000000 -27.000000
v -12.000001 0.000000 -27.000000
v -15.000000 0.000000 -27.000000
v -18.000000 0.000000 -27.000000
v -21.000002 0.000000 -27.000000
v -24.000000 0.000000 -27.000000
v -27.000000 0.000000 -27.000000
vn -0.0000 1.0000 -0.0000
vt 0.950000 0.950000
vt 1.000000 0.950000
vt 1.000000 1.000000
vt 0.950000 1.000000
vt 0.950000 0.000000
vt 1.000000 0.000000
vt 1.000000 0.050000
vt 0.950000 0.050000
vt 1.000000 0.100000
vt 0.950000 0.100000
vt 1.000000 0.150000
vt 0.950000 0.150000
vt 1.000000 0.200000
vt 0.950000 0.200000
vt 1.000000 0.250000
vt 0.950000 0.250000
vt 1.000000 0.300000
vt 0.950000 0.300000
vt 1.000000 0.350000
vt 0.950000 0.350000
vt 1.000000 0.400000
vt 0.950000 0.400000
vt 1.000000 0.450000
vt 0.950000 0.450000
vt 1.000000 0.500000
vt 0.950000 0.500000
vt 1.000000 0.550000
vt 0.950000 0.550000
vt 1.000000 0.600000
vt 0.950000 0.600000
vt 1.000000 0.650000
vt 0.950000 0.650000
vt 1.000000 0.700000
vt 0.950000 0.700000
vt 1.000000 0.750000
vt 0.950000 0.750000
vt 1.000000 0.800000
vt 0.950000 0.800000
vt 1.000000 0.850000
vt 0.950000 0.850000
vt 1.000000 0.900000
vt 0.950000 0.900000
vt 0.000000 0.900000
vt 0.050000 0.900000
vt 0.050000 0.950000
vt 0.000000 0.950000
vt 0.100000 0.900000
vt 0.100000 0.950000
vt 0.150000 0.900000
vt 0.150000 0.950000
vt 0.200000 0.900000
vt 0.200000 0.950000
vt 0.250000 0.900000
vt 0.250000 0.950000
vt 0.300000 0.900000
vt 0.300000 0.950000
vt 0.350000 0.900000
vt 0.350000 0.950000
vt 0.400000 0.900000
vt 0.400000 0.950000
vt 0.450000 0.900000
vt 0.450000 0.950000
vt 0.500000 0.900000
vt 0.500000 0.950000
vt 0.550000 0.900000
vt 0.550000 0.950000
vt 0.600000 0.900000
vt 0.600000 0.950000
vt 0.650000 0.900000
vt 0.650000 0.950000
vt 0.700000 0.900000
vt 0.700000 0.950000
vt 0.750000 0.900000
vt 0.750000 0.950000
vt 0.800000 0.900000
vt 0.800000 0.950000
vt 0.850000 0.900000
vt 0.850000 0.950000
vt 0.900000 0.900000
vt 0.900000 0.950000
vt 0.000000 0.850000
vt 0.050000 0.850000
vt 0.100000 0.850000
vt 0.150000 0.850000
vt 0.200000 0.850000
vt 0.250000 0.850000
vt 0.300000 0.850000
vt 0.350000 0.850000
vt 0.400000 0.850000
vt 0.450000 0.850000
vt 0.500000 0.850000
vt 0.550000 0.850000
vt 0.600000 0.850000
vt 0.650000 0.850000
vt 0.700000 0.850000
vt 0.750000 0.850000
vt 0.800000 0.850000
vt 0.850000 0.850000
vt 0.900000 0.850000
vt 0.000000 0.800000
vt 0.050000 0.800000
vt 0.100000 0.800000
vt 0.150000 0.800000
vt 0.200000 0.800000
vt 0.250000 0.800000
vt 0.300000 0.800000
vt 0.350000 0.800000
vt 0.400000 0.800000
vt 0.450000 0.800000
vt 0.500000 0.800000
vt 0.550000 0.800000
vt 0.600000 0.800000
vt 0.650000 0.800000
vt 0.700000 0.800000
vt 0.750000 0.800000
vt 0.800000 0.800000
vt 0.850000 0.800000
vt 0.900000 0.800000
vt 0.000000 0.750000
vt 0.050000 0.750000
vt 0.100000 0.750000
vt 0.150000 0.750000
vt 0.200000 0.750000
vt 0.250000 0.750000
vt 0.300000 0.750000
vt 0.350000 0.750000
vt 0.400000 0.750000
vt 0.450000 0.750000
vt 0.500000 0.750000
vt 0.550000 0.750000
vt 0.600000 0.750000
vt 0.650000 0.750000
vt 0.700000 0.750000
vt 0.750000 0.750000
vt 0.800000 0.750000
vt 0.850000 0.750000
vt 0.900000 0.750000
vt 0.000000 0.700000
vt 0.050000 0.700000
vt 0.100000 0.700000
vt 0.150000 0.700000
vt 0.200000 0.700000
vt 0.250000 0.700000
vt 0.300000 0.700000
vt 0.350000 0.700000
vt 0.400000 0.700000
vt 0.450000 0.700000
vt 0.500000 0.700000
vt 0.550000 0.700000
vt 0.600000 0.700000
vt 0.650000 0.700000
vt 0.700000 0.700000
vt 0.750000 0.700000
vt 0.800000 0.700000
vt 0.850000 0.700000
vt 0.900000 0.700000
vt 0.000000 0.650000
vt 0.050000 0.650000
vt 0.100000 0.650000
vt 0.150000 0.650000
vt 0.200000 0.650000
vt 0.250000 0.650000
vt 0.300000 0.650000
vt 0.350000 0.650000
vt 0.400000 0.650000
vt 0.450000 0.650000
vt 0.500000 0.650000
vt 0.550000 0.650000
vt 0.600000 0.650000
vt 0.650000 0.650000
vt 0.700000 0.650000
vt 0.750000 0.650000
vt 0.800000 0.650000
vt 0.850000 0.650000
vt 0.900000 0.650000
vt 0.000000 0.600000
vt 0.050000 0.600000
vt 0.100000 0.600000
vt 0.150000 0.600000
vt 0.200000 0.600000
vt 0.250000 0.600000
vt 0.300000 0.600000
vt 0.350000 0.600000
vt 0.400000 0.600000
vt 0.450000 0.600000
vt 0.500000 0.600000
vt 0.550000 0.600000
vt 0.600000 0.600000
vt 0.650000 0.600000
vt 0.700000 0.600000
vt 0.750000 0.600000
vt 0.800000 0.600000
vt 0.850000 0.600000
vt 0.900000 0.600000
vt 0.000000 0.550000
vt 0.050000 0.550000
vt 0.100000 0.550000
vt 0.150000 0.550000
vt 0.200000 0.550000
vt 0.250000 0.550000
vt 0.300000 0.550000
vt 0.350000 0.550000
vt 0.400000 0.550000
vt 0.450000 0.550000
vt 0.500000 0.550000
vt 0.550000 0.550000
vt 0.600000 0.550000
vt 0.650000 0.550000
vt 0.700000 0.550000
vt 0.750000 0.550000
vt 0.800000 0.550000
vt 0.850000 0.550000
vt 0.900000 0.550000
vt 0.000000 0.500000
vt 0.050000 0.500000
vt 0.100000 0.500000
vt 0.150000 0.500000
vt 0.200000 0.500000
vt 0.250000 0.500000
vt 0.300000 0.500000
vt 0.350000 0.500000
vt 0.400000 0.500000
vt 0.450000 0.500000
vt 0.500000 0.500000
vt 0.550000 0.500000
vt 0.600000 0.500000
vt 0.650000 0.500000
vt 0.700000 0.500000
vt 0.750000 0.500000
vt 0.800000 0.500000
vt 0.850000 0.500000
vt 0.900000 0.500000
vt 0.000000 0.450000
vt 0.050000 0.450000
vt 0.100000 0.450000
vt 0.150000 0.450000
vt 0.200000 0.450000
vt 0.250000 0.450000
vt 0.300000 0.450000
vt 0.350000 0.450000
vt 0.400000 0.450000
vt 0.450000 0.450000
vt 0.500000 0.450000
vt 0.550000 0.450000
vt 0.600000 0.450000
vt 0.650000 0.450000
vt 0.700000 0.450000
vt 0.750000 0.450000
vt 0.800000 0.450000
vt 0.850000 0.450000
vt 0.900000 0.450000
vt 0.000000 0.400000
vt 0.050000 0.400000
vt 0.100000 0.400000
vt 0.150000 0.400000
vt 0.200000 0.400000
vt 0.250000 0.400000
vt 0.300000 0.400000
vt 0.350000 0.400000
vt 0.400000 0.400000
vt 0.450000 0.400000
vt 0.500000 0.400000
vt 0.550000 0.400000
vt 0.600000 0.400000
vt 0.650000 0.400000
vt 0.700000 0.400000
vt 0.750000 0.400000
vt 0.800000 0.400000
vt 0.850000 0.400000
vt 0.900000 0.400000
vt 0.000000 0.350000
vt 0.050000 0.350000
vt 0.100000 0.350000
vt 0.150000 0.350000
vt 0.200000 0.350000
vt 0.250000 0.350000
vt 0.300000 0.350000
vt 0.350000 0.350000
vt 0.400000 0.350000
vt 0.450000 0.350000
vt 0.500000 0.350000
vt 0.550000 0.350000
vt 0.600000 0.350000
vt 0.650000 0.350000
vt 0.700000 0.350000
vt 0.750000 0.350000
vt 0.800000 0.350000
vt 0.850000 0.350000
vt 0.900000 0.350000
vt 0.000000 0.300000
vt 0.050000 0.300000
vt 0.100000 0.300000
vt 0.150000 0.300000
vt 0.200000 0.300000
vt 0.250000 0.300000
vt 0.300000 0.300000
vt 0.350000 0.300000
vt 0.400000 0.300000
vt 0.450000 0.300000
vt 0.500000 0.300000
vt 0.550000 0.300000
vt 0.600000 0.300000
vt 0.650000 0.300000
vt 0.700000 0.300000
vt 0.750000 0.300000
vt 0.800000 0.300000
vt 0.850000 0.300000
vt 0.900000 0.300000
vt 0.000000 0.250000
vt 0.050000 0.250000
vt 0.100000 0.250000
vt 0.150000 0.250000
vt 0.200000 0.250000
vt 0.250000 0.250000
vt 0.300000 0.250000
vt 0.350000 0.250000
vt 0.400000 0.250000
vt 0.450000 0.250000
vt 0.500000 0.250000
vt 0.550000 0.250000
vt 0.600000 0.250000
vt 0.650000 0.250000
vt 0.700000 0.250000
vt 0.750000 0.250000
vt 0.800000 0.250000
vt 0.850000 0.250000
vt 0.900000 0.250000
vt 0.000000 0.200000
vt 0.050000 0.200000
vt 0.100000 0.200000
vt 0.150000 0.200000
vt 0.200000 0.200000
vt 0.250000 0.200000
vt 0.300000 0.200000
vt 0.350000 0.200000
vt 0.400000 0.200000
vt 0.450000 0.200000
vt 0.500000 0.200000
vt 0.550000 0.200000
vt 0.600000 0.200000
vt 0.650000 0.200000
vt 0.700000 0.200000
vt 0.750000 0.200000
vt 0.800000 0.200000
vt 0.850000 0.200000
vt 0.900000 0.200000
vt 0.000000 0.150000
vt 0.050000 0.150000
vt 0.100000 0.150000
vt 0.150000 0.150000
vt 0.200000 0.150000
vt 0.250000 0.150000
vt 0.300000 0.150000
vt 0.350000 0.150000
vt 0.400000 0.150000
vt 0.450000 0.150000
vt 0.500000 0.150000
vt 0.550000 0.150000
vt 0.600000 0.150000
vt 0.650000 0.150000
vt 0.700000 0.150000
vt 0.750000 0.150000
vt 0.800000 0.150000
vt 0.850000 0.150000
vt 0.900000 0.150000
vt 0.000000 0.100000
vt 0.050000 0.100000
vt 0.100000 0.100000
vt 0.150000 0.100000
vt 0.200000 0.100000
vt 0.250000 0.100000
vt 0.300000 0.100000
vt 0.350000 0.100000
vt 0.400000 0.100000
vt 0.450000 0.100000
vt 0.500000 0.100000
vt 0.550000 0.100000
vt 0.600000 0.100000
vt 0.650000 0.100000
vt 0.700000 0.100000
vt 0.750000 0.100000
vt 0.800000 0.100000
vt 0.850000 0.100000
vt 0.900000 0.100000
vt 0.000000 0.050000
vt 0.050000 0.050000
vt 0.100000 0.050000
vt 0.150000 0.050000
vt 0.200000 0.050000
vt 0.250000 0.050000
vt 0.300000 0.050000
vt 0.350000 0.050000
vt 0.400000 0.050000
vt 0.450000 0.050000
vt 0.500000 0.050000
vt 0.550000 0.050000
vt 0.600000 0.050000
vt 0.650000 0.050000
vt 0.700000 0.050000
vt 0.750000 0.050000
vt 0.800000 0.050000
vt 0.850000 0.050000
vt 0.900000 0.050000
vt 0.000000 0.000000
vt 0.050000 0.000000
vt 0.100000 0.000000
vt 0.150000 0.000000
vt 0.200000 0.000000
vt 0.250000 0.000000
vt 0.300000 0.000000
vt 0.350000 0.000000
vt 0.400000 0.000000
vt 0.450000 0.000000
vt 0.500000 0.000000
vt 0.550000 0.000000
vt 0.600000 0.000000
vt 0.650000 0.000000
vt 0.700000 0.000000
vt 0.750000 0.000000
vt 0.800000 0.000000
vt 0.850000 0.000000
vt 0.900000 0.000000
vt 0.050000 1.000000
vt 0.000000 1.000000
vt 0.100000 1.000000
vt 0.150000 1.000000
vt 0.200000 1.000000
vt 0.250000 1.000000
vt 0.300000 1.000000
vt 0.350000 1.000000
vt 0.400000 1.000000
vt 0.450000 1.000000
vt 0.500000 1.000000
vt 0.550000 1.000000
vt 0.600000 1.000000
vt 0.650000 1.000000
vt 0.700000 1.000000
vt 0.750000 1.000000
vt 0.800000 1.000000
vt 0.850000 1.000000
vt 0.900000 1.000000
s 0
f 423/1/1 42/2/1 4/3/1 62/4/1
f 61/5/1 2/6/1 24/7/1 81/8/1
f 81/8/1 24/7/1 25/9/1 100/10/1
f 100/10/1 25/9/1 26/11/1 119/12/1
f 119/12/1 26/11/1 27/13/1 138/14/1
f 138/14/1 27/13/1 28/15/1 157/16/1
f 157/16/1 28/15/1 29/17/1 176/18/1
f 176/18/1 29/17/1 30/19/1 195/20/1
f 195/20/1 30/19/1 31/21/1 214/22/1
f 214/22/1 31/21/1 32/23/1 233/24/1
f 233/24/1 32/23/1 33/25/1 252/26/1
f 252/26/1 33/25/1 34/27/1 271/28/1
f 271/28/1 34/27/1 35/29/1 290/30/1
f 290/30/1 35/29/1 36/31/1 309/32/1
f 309/32/1 36/31/1 37/33/1 328/34/1
f 328/34/1 37/33/1 38/35/1 347/36/1
f 347/36/1 38/35/1 39/37/1 366/38/1
f 366/38/1 39/37/1 40/39/1 385/40/1
f 385/40/1 40/39/1 41/41/1 404/42/1
f 404/42/1 41/41/1 42/2/1 423/1/1
f 6/43/1 422/44/1 441/45/1 5/46/1
f 422/44/1 421/47/1 440/48/1 441/45/1
f 421/47/1 420/49/1 439/50/1 440/48/1
f 420/49/1 419/51/1 438/52/1 439/50/1
f 419/51/1 418/53/1 437/54/1 438/52/1
f 418/53/1 417/55/1 436/56/1 437/54/1
f 417/55/1 416/57/1 435/58/1 436/56/1
f 416/57/1 415/59/1 434/60/1 435/58/1
f 415/59/1 414/61/1 433/62/1 434/60/1
f 414/61/1 413/63/1 432/64/1 433/62/1
f 413/63/1 412/65/1 431/66/1 432/64/1
f 412/65/1 411/67/1 430/68/1 431/66/1
f 411/67/1 410/69/1 429/70/1 430/68/1
f 410/69/1 409/71/1 428/72/1 429/70/1
f 409/71/1 408/73/1 427/74/1 428/72/1
f 408/73/1 407/75/1 426/76/1 427/74/1
f 407/75/1 406/77/1 425/78/1 426/76/1
f 406/77/1 405/79/1 424/80/1 425/78/1
f 405/79/1 404/42/1 423/1/1 424/80/1
f 7/81/1 403/82/1 422/44/1 6/43/1
f 403/82/1 402/83/1 421/47/1 422/44/1
f 402/83/1 401/84/1 420/49/1 421/47/1
f 401/84/1 400/85/1 419/51/1 420/49/1
f 400/85/1 399/86/1 418/53/1 419/51/1
f 399/86/1 398/87/1 417/55/1 418/53/1
f 398/87/1 397/88/1 416/57/1 417/55/1
f 397/88/1 396/89/1 415/59/1 416/57/1
f 396/89/1 395/90/1 414/61/1 415/59/1
f 395/90/1 394/91/1 413/63/1 414/61/1
f 394/91/1 393/92/1 412/65/1 413/63/1
f 393/92/1 392/93/1 411/67/1 412/65/1
f 392/93/1 391/94/1 410/69/1 411/67/1
f 391/94/1 390/95/1 409/71/1 410/69/1
f 390/95/1 389/96/1 408/73/1 409/71/1
f 389/96/1 388/97/1 407/75/1 408/73/1
f 388/97/1 387/98/1 406/77/1 407/75/1
f 387/98/1 386/99/1 405/79/1 406/77/1
f 386/99/1 385/40/1 404/42/1 405/79/1
f 8/100/1 384/101/1 403/82/1 7/81/1
f 384/101/1 383/102/1 402/83/1 403/82/1
f 383/102/1 382/103/1 401/84/1 402/83/1
f 382/103/1 381/104/1 400/85/1 401/84/1
f 381/104/1 380/105/1 399/86/1 400/85/1
f 380/105/1 379/106/1 398/87/1 399/86/1
f 379/106/1 378/107/1 397/88/1 398/87/1
f 378/107/1 377/108/1 396/89/1 397/88/1
f 377/108/1 376/109/1 395/90/1 396/89/1
f 376/109/1 375/110/1 394/91/1 395/90/1
f 375/110/1 374/111/1 393/92/1 394/91/1
f 374/111/1 373/112/1 392/93/1 393/92/1
f 373/112/1 372/113/1 391/94/1 392/93/1
f 372/113/1 371/114/1 390/95/1 391/94/1
f 371/114/1 370/115/1 389/96/1 390/95/1
f 370/115/1 369/116/1 388/97/1 389/96/1
f 369/116/1 368/117/1 387/98/1 388/97/1
f 368/117/1 367/118/1 386/99/1 387/98/1
f 367/118/1 366/38/1 385/40/1 386/99/1
f 9/119/1 365/120/1 384/101/1 8/100/1
f 365/120/1 364/121/1 383/102/1 384/101/1
f 364/121/1 363/122/1 382/103/1 383/102/1
f 363/122/1 362/123/1 381/104/1 382/103/1
f 362/123/1 361/124/1 380/105/1 381/104/1
f 361/124/1 360/125/1 379/106/1 380/105/1
f 360/125/1 359/126/1 378/107/1 379/106/1
f 359/126/1 358/127/1 377/108/1 378/107/1
f 358/127/1 357/128/1 376/109/1 377/108/1
f 357/128/1 356/129/1 375/110/1 376/109/1
f 356/129/1 355/130/1 374/111/1 375/110/1
f 355/130/1 354/131/1 373/112/1 374/111/1
f 354/131/1 353/132/1 372/113/1 373/112/1
f 353/132/1 352/133/1 371/114/1 372/113/1
f 352/133/1 351/134/1 370/115/1 371/114/1
f 351/134/1 350/135/1 369/116/1 370/115/1
f 350/135/1 349/136/1 368/117/1 369/116/1
f 349/136/1 348/137/1 367/118/1 368/117/1
f 348/137/1 347/36/1 366/38/1 367/118/1
f 10/138/1 346/139/1 365/120/1 9/119/1
f 346/139/1 345/140/1 364/121/1 365/120/1
f 345/140/1 344/141/1 363/122/1 364/121/1
f 344/141/1 343/142/1 362/123/1 363/122/1
f 343/142/1 342/143/1 361/124/1 362/123/1
f 342/143/1 341/144/1 360/125/1 361/124/1
f 341/144/1 340/145/1 359/126/1 360/125/1
f 340/145/1 339/146/1 358/127/1 359/126/1
f 339/146/1 338/147/1 357/128/1 358/127/1
f 338/147/1 337/148/1 356/129/1 357/128/1
f 337/148/1 336/149/1 355/130/1 356/129/1
f 336/149/1 335/150/1 354/131/1 355/130/1
f 335/150/1 334/151/1 353/132/1 354/131/1
f 334/151/1 333/152/1 352/133/1 353/132/1
f 333/152/1 332/153/1 351/134/1 352/133/1
f 332/153/1 331/154/1 350/135/1 351/134/1
f 331/154/1 330/155/1 349/136/1 350/135/1
f 330/155/1 329/156/1 348/137/1 349/136/1
f 329/156/1 328/34/1 347/36/1 348/137/1
f 11/157/1 327/158/1 346/139/1 10/138/1
f 327/158/1 326/159/1 345/140/1 346/139/1
f 326/159/1 325/160/1 344/141/1 345/140/1
f 325/160/1 324/161/1 343/142/1 344/141/1
f 324/161/1 323/162/1 342/143/1 343/142/1
f 323/162/1 322/163/1 341/144/1 342/143/1
f 322/163/1 321/164/1 340/145/1 341/144/1
f 321/164/1 320/165/1 339/146/1 340/145/1
f 320/165/1 319/166/1 338/147/1 339/146/1
f 319/166/1 318/167/1 337/148/1 338/147/1
f 318/167/1 317/168/1 336/149/1 337/148/1
f 317/168/1 316/169/1 335/150/1 336/149/1
f 316/169/1 315/170/1 334/151/1 335/150/1
f 315/170/1 314/171/1 333/152/1 334/151/1
f 314/171/1 313/172/1 332/153/1 333/152/1
f 313/172/1 312/173/1 331/154/1 332/153/1
f 312/173/1 311/174/1 330/155/1 331/154/1
f 311/174/1 310/175/1 329/156/1 330/155/1
f 310/175/1 309/32/1 328/34/1 329/156/1
f 12/176/1 308/177/1 327/158/1 11/157/1
f 308/177/1 307/178/1 326/159/1 327/158/1
f 307/178/1 306/179/1 325/160/1 326/159/1
f 306/179/1 305/180/1 324/161/1 325/160/1
f 305/180/1 304/181/1 323/162/1 324/161/1
f 304/181/1 303/182/1 322/163/1 323/162/1
f 303/182/1 302/183/1 321/164/1 322/163/1
f 302/183/1 301/184/1 320/165/1 321/164/1
f 301/184/1 300/185/1 319/166/1 320/165/1
f 300/185/1 299/186/1 318/167/1 319/166/1
f 299/186/1 298/187/1 317/168/1 318/167/1
f 298/187/1 297/188/1 316/169/1 317/168/1
f 297/188/1 296/189/1 315/170/1 316/169/1
f 296/189/1 295/190/1 314/171/1 315/170/1
f 295/190/1 294/191/1 313/172/1 314/171/1
f 294/191/1 293/192/1 312/173/1 313/172/1
f 293/192/1 292/193/1 311/174/1 312/173/1
f 292/193/1 291/194/1 310/175/1 311/174/1
f 291/194/1 290/30/1 309/32/1 310/175/1
f 13/195/1 289/196/1 308/177/1 12/176/1
f 289/196/1 288/197/1 307/178/1 308/177/1
f 288/197/1 287/198/1 306/179/1 307/178/1
f 287/198/1 286/199/1 305/180/1 306/179/1
f 286/199/1 285/200/1 304/181/1 305/180/1
f 285/200/1 284/201/1 303/182/1 304/181/1
f 284/201/1 283/202/1 302/183/1 303/182/1
f 283/202/1 282/203/1 301/184/1 302/183/1
f 282/203/1 281/204/1 300/185/1 301/184/1
f 281/204/1 280/205/1 299/186/1 300/185/1
f 280/205/1 279/206/1 298/187/1 299/186/1
f 279/206/1 278/207/1 297/188/1 298/187/1
f 278/207/1 277/208/1 296/189/1 297/188/1
f 277/208/1 276/209/1 295/190/1 296/189/1
f 276/209/1 275/210/1 294/191/1 295/190/1
f 275/210/1 274/211/1 293/192/1 294/191/1
f 274/211/1 273/212/1 292/193/1 293/192/1
f 273/212/1 272/213/1 291/194/1 292/193/1
f 272/213/1 271/28/1 290/30/1 291/194/1
f 14/214/1 270/215/1 289/196/1 13/195/1
f 270/215/1 269/216/1 288/197/1 289/196/1
f 269/216/1 268/217/1 287/198/1 288/197/1
f 268/217/1 267/218/1 286/199/1 287/198/1
f 267/218/1 266/219/1 285/200/1 286/199/1
f 266/219/1 265/220/1 284/201/1 285/200/1
f 265/220/1 264/221/1 283/202/1 284/201/1
f 264/221/1 263/222/1 282/203/1 283/202/1
f 263/222/1 262/223/1 281/204/1 282/203/1
f 262/223/1 261/224/1 280/205/1 281/204/1
f 261/224/1 260/225/1 279/206/1 280/205/1
f 260/225/1 259/226/1 278/207/1 279/206/1
f 259/226/1 258/227/1 277/208/1 278/207/1
f 258/227/1 257/228/1 276/209/1 277/208/1
f 257/228/1 256/229/1 275/210/1 276/209/1
f 256/229/1 255/230/1 274/211/1 275/210/1
f 255/230/1 254/231/1 273/212/1 274/211/1
f 254/231/1 253/232/1 272/213/1 273/212/1
f 253/232/1 252/26/1 271/28/1 272/213/1
f 15/233/1 251/234/1 270/215/1 14/214/1
f 251/234/1 250/235/1 269/216/1 270/215/1
f 250/235/1 249/236/1 268/217/1 269/216/1
f 249/236/1 248/237/1 267/218/1 268/217/1
f 248/237/1 247/238/1 266/219/1 267/218/1
f 247/238/1 246/239/1 265/220/1 266/219/1
f 246/239/1 245/240/1 264/221/1 265/220/1
f 245/240/1 244/241/1 263/222/1 264/221/1
f 244/241/1 243/242/1 262/223/1 263/222/1
f 243/242/1 242/243/1 261/224/1 262/223/1
f 242/243/1 241/244/1 260/225/1 261/224/1
f 241/244/1 240/245/1 259/226/1 260/225/1
f 240/245/1 239/246/1 258/227/1 259/226/1
f 239/246/1 238/247/1 257/228/1 258/227/1
f 238/247/1 237/248/1 256/229/1 257/228/1
f 237/248/1 236/249/1 255/230/1 256/229/1
f 236/249/1 235/250/1 254/231/1 255/230/1
f 235/250/1 234/251/1 253/232/1 254/231/1
f 234/251/1 233/24/1 252/26/1 253/232/1
f 16/252/1 232/253/1 251/234/1 15/233/1
f 232/253/1 231/254/1 250/235/1 251/234/1
f 231/254/1 230/255/1 249/236/1 250/235/1
f 230/255/1 229/256/1 248/237/1 249/236/1
f 229/256/1 228/257/1 247/238/1 248/237/1
f 228/257/1 227/258/1 246/239/1 247/238/1
f 227/258/1 226/259/1 245/240/1 246/239/1
f 226/259/1 225/260/1 244/241/1 245/240/1
f 225/260/1 224/261/1 243/242/1 244/241/1
f 224/261/1 223/262/1 242/243/1 243/242/1
f 223/262/1 222/263/1 241/244/1 242/243/1
f 222/263/1 221/264/1 240/245/1 241/244/1
f 221/264/1 220/265/1 239/246/1 240/245/1
f 220/265/1 219/266/1 238/247/1 239/246/1
f 219/266/1 218/267/1 237/248/1 238/247/1
f 218/267/1 217/268/1 236/249/1 237/248/1
f 217/268/1 216/269/1 235/250/1 236/249/1
f 216/269/1 215/270/1 234/251/1 235/250/1
f 215/270/1 214/22/1 233/24/1 234/251/1
f 17/271/1 213/272/1 232/253/1 16/252/1
f 213/272/1 212/273/1 231/254/1 232/253/1
f 212/273/1 211/274/1 230/255/1 231/254/1
f 211/274/1 210/275/1 229/256/1 230/255/1
f 210/275/1 209/276/1 228/257/1 229/256/1
f 209/276/1 208/277/1 227/258/1 228/257/1
f 208/277/1 207/278/1 226/259/1 227/258/1
f 207/278/1 206/279/1 225/260/1 226/259/1
f 206/279/1 205/280/1 224/261/1 225/260/1
f 205/280/1 204/281/1 223/262/1 224/261/1
f 204/281/1 203/282/1 222/263/1 223/262/1
f 203/282/1 202/283/1 221/264/1 222/263/1
f 202/283/1 201/284/1 220/265/1 221/264/1
f 201/284/1 200/285/1 219/266/1 220/265/1
f 200/285/1 199/286/1 218/267/1 219/266/1
f 199/286/1 198/287/1 217/268/1 218/267/1
f 198/287/1 197/288/1 216/269/1 217/268/1
f 197/288/1 196/289/1 215/270/1 216/269/1
f 196/289/1 195/20/1 214/22/1 215/270/1
f 18/290/1 194/291/1 213/272/1 17/271/1
f 194/291/1 193/292/1 212/273/1 213/272/1
f 193/292/1 192/293/1 211/274/1 212/273/1
f 192/293/1 191/294/1 210/275/1 211/274/1
f 191/294/1 190/295/1 209/276/1 210/275/1
f 190/295/1 189/296/1 208/277/1 209/276/1
f 189/296/1 188/297/1 207/278/1 208/277/1
f 188/297/1 187/298/1 206/279/1 207/278/1
f 187/298/1 186/299/1 205/280/1 206/279/1
f 186/299/1 185/300/1 204/281/1 205/280/1
f 185/300/1 184/301/1 203/282/1 204/281/1
f 184/301/1 183/302/1 202/283/1 203/282/1
f 183/302/1 182/303/1 201/284/1 202/283/1
f 182/303/1 181/304/1 200/285/1 201/284/1
f 181/304/1 180/305/1 199/286/1 200/285/1
f 180/305/1 179/306/1 198/287/1 199/286/1
f 179/306/1 178/307/1 197/288/1 198/287/1
f 178/307/1 177/308/1 196/289/1 197/288/1
f 177/308/1 176/18/1 195/20/1 196/289/1
f 19/309/1 175/310/1 194/291/1 18/290/1
f 175/310/1 174/311/1 193/292/1 194/291/1
f 174/311/1 173/312/1 192/293/1 193/292/1
f 173/312/1 172/313/1 191/294/1 192/293/1
f 172/313/1 171/314/1 190/295/1 191/294/1
f 171/314/1 170/315/1 189/296/1 190/295/1
f 170/315/1 169/316/1 188/297/1 189/296/1
f 169/316/1 168/317/1 187/298/1 188/297/1
f 168/317/1 167/318/1 186/299/1 187/298/1
f 167/318/1 166/319/1 185/300/1 186/299/1
f 166/319/1 165/320/1 184/301/1 185/300/1
f 165/320/1 164/321/1 183/302/1 184/301/1
f 164/321/1 163/322/1 182/303/1 183/302/1
f 163/322/1 162/323/1 181/304/1 182/303/1
f 162/323/1 161/324/1 180/305/1 181/304/1
f 161/324/1 160/325/1 179/306/1 180/305/1
f 160/325/1 159/326/1 178/307/1 179/306/1
f 159/326/1 158/327/1 177/308/1 178/307/1
f 158/327/1 157/16/1 176/18/1 177/308/1
f 20/328/1 156/329/1 175/310/1 19/309/1
f 156/329/1 155/330/1 174/311/1 175/310/1
f 155/330/1 154/331/1 173/312/1 174/311/1
f 154/331/1 153/332/1 172/313/1 173/312/1
f 153/332/1 152/333/1 171/314/1 172/313/1
f 152/333/1 151/334/1 170/315/1 171/314/1
f 151/334/1 150/335/1 169/316/1 170/315/1
f 150/335/1 149/336/1 168/317/1 169/316/1
f 149/336/1 148/337/1 167/318/1 168/317/1
f 148/337/1 147/338/1 166/319/1 167/318/1
f 147/338/1 146/339/1 165/320/1 166/319/1
f 146/339/1 145/340/1 164/321/1 165/320/1
f 145/340/1 144/341/1 163/322/1 164/321/1
f 144/341/1 143/342/1 162/323/1 163/322/1
f 143/342/1 142/343/1 161/324/1 162/323/1
f 142/343/1 141/344/1 160/325/1 161/324/1
f 141/344/1 140/345/1 159/326/1 160/325/1
f 140/345/1 139/346/1 158/327/1 159/326/1
f 139/346/1 138/14/1 157/16/1 158/327/1
f 21/347/1 137/348/1 156/329/1 20/328/1
f 137/348/1 136/349/1 155/330/1 156/329/1
f 136/349/1 135/350/1 154/331/1 155/330/1
f 135/350/1 134/351/1 153/332/1 154/331/1
f 134/351/1 133/352/1 152/333/1 153/332/1
f 133/352/1 132/353/1 151/334/1 152/333/1
f 132/353/1 131/354/1 150/335/1 151/334/1
f 131/354/1 130/355/1 149/336/1 150/335/1
f 130/355/1 129/356/1 148/337/1 149/336/1
f 129/356/1 128/357/1 147/338/1 148/337/1
f 128/357/1 127/358/1 146/339/1 147/338/1
f 127/358/1 126/359/1 145/340/1 146/339/1
f 126/359/1 125/360/1 144/341/1 145/340/1
f 125/360/1 124/361/1 143/342/1 144/341/1
f 124/361/1 123/362/1 142/343/1 143/342/1
f 123/362/1 122/363/1 141/344/1 142/343/1
f 122/363/1 121/364/1 140/345/1 141/344/1
f 121/364/1 120/365/1 139/346/1 140/345/1
f 120/365/1 119/12/1 138/14/1 139/346/1
f 22/366/1 118/367/1 137/348/1 21/347/1
f 118/367/1 117/368/1 136/349/1 137/348/1
f 117/368/1 116/369/1 135/350/1 136/349/1
f 116/369/1 115/370/1 134/351/1 135/350/1
f 115/370/1 114/371/1 133/352/1 134/351/1
f 114/371/1 113/372/1 132/353/1 133/352/1
f 113/372/1 112/373/1 131/354/1 132/353/1
f 112/373/1 111/374/1 130/355/1 131/354/1
f 111/374/1 110/375/1 129/356/1 130/355/1
f 110/375/1 109/376/1 128/357/1 129/356/1
f 109/376/1 108/377/1 127/358/1 128/357/1
f 108/377/1 107/378/1 126/359/1 127/358/1
f 107/378/1 106/379/1 125/360/1 126/359/1
f 106/379/1 105/380/1 124/361/1 125/360/1
f 105/380/1 104/381/1 123/362/1 124/361/1
f 104/381/1 103/382/1 122/363/1 123/362/1
f 103/382/1 102/383/1 121/364/1 122/363/1
f 102/383/1 101/384/1 120/365/1 121/364/1
f 101/384/1 100/10/1 119/12/1 120/365/1
f 23/385/1 99/386/1 118/367/1 22/366/1
f 99/386/1 98/387/1 117/368/1 118/367/1
f 98/387/1 97/388/1 116/369/1 117/368/1
f 97/388/1 96/389/1 115/370/1 116/369/1
f 96/389/1 95/390/1 114/371/1 115/370/1
f 95/390/1 94/391/1 113/372/1 114/371/1
f 94/391/1 93/392/1 112/373/1 113/372/1
f 93/392/1 92/393/1 111/374/1 112/373/1
f 92/393/1 91/394/1 110/375/1 111/374/1
f 91/394/1 90/395/1 109/376/1 110/375/1
f 90/395/1 89/396/1 108/377/1 109/376/1
f 89/396/1 88/397/1 107/378/1 108/377/1
f 88/397/1 87/398/1 106/379/1 107/378/1
f 87/398/1 86/399/1 105/380/1 106/379/1
f 86/399/1 85/400/1 104/381/1 105/380/1
f 85/400/1 84/401/1 103/382/1 104/381/1
f 84/401/1 83/402/1 102/383/1 103/382/1
f 83/402/1 82/403/1 101/384/1 102/383/1
f 82/403/1 81/8/1 100/10/1 101/384/1
f 1/404/1 43/405/1 99/386/1 23/385/1
f 43/405/1 44/406/1 98/387/1 99/386/1
f 44/406/1 45/407/1 97/388/1 98/387/1
f 45/407/1 46/408/1 96/389/1 97/388/1
f 46/408/1 47/409/1 95/390/1 96/389/1
f 47/409/1 48/410/1 94/391/1 95/390/1
f 48/410/1 49/411/1 93/392/1 94/391/1
f 49/411/1 50/412/1 92/393/1 93/392/1
f 50/412/1 51/413/1 91/394/1 92/393/1
f 51/413/1 52/414/1 90/395/1 91/394/1
f 52/414/1 53/415/1 89/396/1 90/395/1
f 53/415/1 54/416/1 88/397/1 89/396/1
f 54/416/1 55/417/1 87/398/1 88/397/1
f 55/417/1 56/418/1 86/399/1 87/398/1
f 56/418/1 57/419/1 85/400/1 86/399/1
f 57/419/1 58/420/1 84/401/1 85/400/1
f 58/420/1 59/421/1 83/402/1 84/401/1
f 59/421/1 60/422/1 82/403/1 83/402/1
f 60/422/1 61/5/1 81/8/1 82/403/1
f 5/46/1 441/45/1 80/423/1 3/424/1
f 441/45/1 440/48/1 79/425/1 80/423/1
f 440/48/1 439/50/1 78/426/1 79/425/1
f 439/50/1 438/52/1 77/427/1 78/426/1
f 438/52/1 437/54/1 76/428/1 77/427/1
f 437/54/1 436/56/1 75/429/1 76/428/1
f 436/56/1 435/58/1 74/430/1 75/429/1
f 435/58/1 434/60/1 73/431/1 74/430/1
f 434/60/1 433/62/1 72/432/1 73/431/1
f 433/62/1 432/64/1 71/433/1 72/432/1
f 432/64/1 431/66/1 70/434/1 71/433/1
f 431/66/1 430/68/1 69/435/1 70/434/1
f 430/68/1 429/70/1 68/436/1 69/435/1
f 429/70/1 428/72/1 67/437/1 68/436/1
f 428/72/1 427/74/1 66/438/1 67/437/1
f 427/74/1 426/76/1 65/439/1 66/438/1
f 426/76/1 425/78/1 64/440/1 65/439/1
f 425/78/1 424/80/1 63/441/1 64/440/1
f 424/80/1 423/1/1 62/4/1 63/441/1
